
      <svg
      id="visual"
      viewBox="0 0 900 450"
      width="900"
      height="450"
      xmlns="http://www.w3.org/2000/svg"
      xmlns:xlink="http://www.w3.org/1999/xlink"
      version="1.1"
    >
      <style>
        .title {
          font-family: "Helvetica Neue", Helvetica, Arial, sans-serif;
          font-size: 100px;
          font-weight: 500;
          fill: #fff;
        }
      </style>
      <path
        d="M0 78L16.7 70.5C33.3 63 66.7 48 100 47.2C133.3 46.3 166.7 59.7 200 58.8C233.3 58 266.7 43 300 36.3C333.3 29.7 366.7 31.3 400 31.3C433.3 31.3 466.7 29.7 500 31.8C533.3 34 566.7 40 600 45.3C633.3 50.7 666.7 55.3 700 52.3C733.3 49.3 766.7 38.7 800 41.7C833.3 44.7 866.7 61.3 883.3 69.7L900 78L900 0L883.3 0C866.7 0 833.3 0 800 0C766.7 0 733.3 0 700 0C666.7 0 633.3 0 600 0C566.7 0 533.3 0 500 0C466.7 0 433.3 0 400 0C366.7 0 333.3 0 300 0C266.7 0 233.3 0 200 0C166.7 0 133.3 0 100 0C66.7 0 33.3 0 16.7 0L0 0Z"
        fill="#191919"
      /><path
        d="M0 163L16.7 170.5C33.3 178 66.7 193 100 205.8C133.3 218.7 166.7 229.3 200 215.8C233.3 202.3 266.7 164.7 300 147.3C333.3 130 366.7 133 400 129.3C433.3 125.7 466.7 115.3 500 134.2C533.3 153 566.7 201 600 206.2C633.3 211.3 666.7 173.7 700 150.3C733.3 127 766.7 118 800 124C833.3 130 866.7 151 883.3 161.5L900 172L900 76L883.3 67.7C866.7 59.3 833.3 42.7 800 39.7C766.7 36.7 733.3 47.3 700 50.3C666.7 53.3 633.3 48.7 600 43.3C566.7 38 533.3 32 500 29.8C466.7 27.7 433.3 29.3 400 29.3C366.7 29.3 333.3 27.7 300 34.3C266.7 41 233.3 56 200 56.8C166.7 57.7 133.3 44.3 100 45.2C66.7 46 33.3 61 16.7 68.5L0 76Z"
        fill="#b91c1c"
      /><path
        d="M0 316L16.7 309.3C33.3 302.7 66.7 289.3 100 289.3C133.3 289.3 166.7 302.7 200 307.8C233.3 313 266.7 310 300 309.3C333.3 308.7 366.7 310.3 400 303.7C433.3 297 466.7 282 500 285C533.3 288 566.7 309 600 317.2C633.3 325.3 666.7 320.7 700 321.3C733.3 322 766.7 328 800 324.3C833.3 320.7 866.7 307.3 883.3 300.7L900 294L900 170L883.3 159.5C866.7 149 833.3 128 800 122C766.7 116 733.3 125 700 148.3C666.7 171.7 633.3 209.3 600 204.2C566.7 199 533.3 151 500 132.2C466.7 113.3 433.3 123.7 400 127.3C366.7 131 333.3 128 300 145.3C266.7 162.7 233.3 200.3 200 213.8C166.7 227.3 133.3 216.7 100 203.8C66.7 191 33.3 176 16.7 168.5L0 161Z"
        fill="#ef4444"
      /><path
        d="M0 406L16.7 400.8C33.3 395.7 66.7 385.3 100 383.8C133.3 382.3 166.7 389.7 200 389.7C233.3 389.7 266.7 382.3 300 375.7C333.3 369 366.7 363 400 363C433.3 363 466.7 369 500 376.5C533.3 384 566.7 393 600 396C633.3 399 666.7 396 700 399C733.3 402 766.7 411 800 409.5C833.3 408 866.7 396 883.3 390L900 384L900 292L883.3 298.7C866.7 305.3 833.3 318.7 800 322.3C766.7 326 733.3 320 700 319.3C666.7 318.7 633.3 323.3 600 315.2C566.7 307 533.3 286 500 283C466.7 280 433.3 295 400 301.7C366.7 308.3 333.3 306.7 300 307.3C266.7 308 233.3 311 200 305.8C166.7 300.7 133.3 287.3 100 287.3C66.7 287.3 33.3 300.7 16.7 307.3L0 314Z"
        fill="#b91c1c"
      /><path
        d="M0 451L16.7 451C33.3 451 66.7 451 100 451C133.3 451 166.7 451 200 451C233.3 451 266.7 451 300 451C333.3 451 366.7 451 400 451C433.3 451 466.7 451 500 451C533.3 451 566.7 451 600 451C633.3 451 666.7 451 700 451C733.3 451 766.7 451 800 451C833.3 451 866.7 451 883.3 451L900 451L900 382L883.3 388C866.7 394 833.3 406 800 407.5C766.7 409 733.3 400 700 397C666.7 394 633.3 397 600 394C566.7 391 533.3 382 500 374.5C466.7 367 433.3 361 400 361C366.7 361 333.3 367 300 373.7C266.7 380.3 233.3 387.7 200 387.7C166.7 387.7 133.3 380.3 100 381.8C66.7 383.3 33.3 393.7 16.7 398.8L0 404Z"
        fill="#191919"
      />
      <text x="50%" y="50%" class="title" text-anchor="middle" alignment-baseline="central">CS50</text>
      </svg>
    